<svg width="40" height="40" viewBox="0 0 40 40" fill="none" xmlns="http://www.w3.org/2000/svg">
<path d="M31.0268 33.3335H31.8438C33.7601 33.3335 35.2844 32.4603 36.6531 31.2395C40.1299 28.1378 31.9568 25.0002 29.1666 25.0002M25.8333 8.44811C26.2118 8.37305 26.6048 8.3335 27.0079 8.3335C30.0411 8.3335 32.4999 10.5721 32.4999 13.3335C32.4999 16.0949 30.0411 18.3335 27.0079 18.3335C26.6048 18.3335 26.2118 18.294 25.8333 18.2188" stroke="#FF4136" stroke-width="2" stroke-linecap="round"/>
<path d="M7.46885 26.852C5.5039 27.905 0.351898 30.0552 3.4898 32.7457C5.02265 34.06 6.72985 35 8.8762 35H21.1238C23.2702 35 24.9773 34.06 26.5102 32.7457C29.6482 30.0552 24.4962 27.905 22.5312 26.852C17.9233 24.3827 12.0767 24.3827 7.46885 26.852Z" stroke="#FF4136" stroke-width="2"/>
<path d="M21.6666 12.5002C21.6666 16.1821 18.6818 19.1668 14.9999 19.1668C11.318 19.1668 8.33325 16.1821 8.33325 12.5002C8.33325 8.81826 11.318 5.8335 14.9999 5.8335C18.6818 5.8335 21.6666 8.81826 21.6666 12.5002Z" stroke="#FF4136" stroke-width="2"/>
</svg>
