<svg width="40" height="40" viewBox="0 0 40 40" fill="none" xmlns="http://www.w3.org/2000/svg">
<g clip-path="url(#clip0_2275_10238)">
<path d="M35.9998 12.8706V5.33321C35.9998 4.59685 35.4028 3.99987 34.6665 3.99987H31.3331C30.5968 3.99987 29.9998 4.59685 29.9998 5.33321V7.89321L20.8571 0.308545C20.3596 -0.103499 19.6393 -0.103499 19.1418 0.308545L0.485796 15.7866C0.205857 16.0187 0.032014 16.3545 0.00399576 16.7171C-0.0240224 17.0797 0.0961786 17.4381 0.337129 17.7106L1.9998 19.5866C2.47959 20.1338 3.30873 20.1975 3.86647 19.7299L3.99978 19.6152V38.6664C3.99978 39.4028 4.59676 39.9999 5.33313 39.9999H34.6665C35.4028 39.9999 35.9998 39.4028 35.9998 38.6664V19.6152L36.1378 19.7299C36.6945 20.1955 37.5211 20.1319 37.9996 19.5866L39.6596 17.7106C39.9011 17.4384 40.0218 17.0799 39.9938 16.7172C39.9658 16.3545 39.792 16.0186 39.5116 15.7866L35.9998 12.8706ZM31.3331 5.33321H34.6665V11.7646L31.3331 8.99987V5.33321ZM34.6665 38.6664H5.33313V18.5092L19.9998 6.34187L34.6665 18.5092V38.6664ZM37.0033 18.7026C36.9993 18.7063 36.9931 18.7063 36.9891 18.7026L20.4258 4.96256C20.1788 4.75739 19.8208 4.75739 19.5738 4.96256L2.9998 18.7026L1.33713 16.8126L20.0065 1.33321L38.6665 16.8266L37.0033 18.7026Z" fill="#FF4136"/>
<path d="M9.93894 25.7095L9.36029 28.9922C9.29654 29.3546 9.53854 29.7002 9.90094 29.7642C9.93919 29.7713 9.97803 29.7748 10.0169 29.7748C10.3402 29.7746 10.6167 29.5424 10.6729 29.2242L11.0203 27.2542L11.9283 27.4141L12.6616 29.8768C12.7457 30.1595 13.0054 30.3533 13.3003 30.3535C13.3647 30.3536 13.4287 30.3442 13.4903 30.3255C13.8429 30.2204 14.0437 29.8495 13.9389 29.4968L13.3183 27.4108C14.1864 27.1204 14.7465 26.2777 14.6782 25.3649C14.6099 24.4521 13.9306 23.7021 13.0289 23.5442L11.0589 23.2002C10.6967 23.1364 10.3513 23.378 10.2869 23.7402L9.93963 25.7082L9.93894 25.7095ZM11.4843 24.6275L12.7969 24.8602C13.1591 24.9244 13.4007 25.2699 13.3369 25.6322C13.3065 25.8063 13.2082 25.9612 13.0636 26.0628C12.919 26.1652 12.7392 26.2048 12.5649 26.1728L11.2523 25.9415L11.4843 24.6275Z" fill="#FF4136"/>
<path d="M15.8097 30.806L18.4357 31.2727C18.4742 31.2798 18.5132 31.2834 18.5524 31.2833C18.9048 31.2922 19.2032 31.0252 19.2334 30.674C19.2636 30.3227 19.0151 30.0087 18.6664 29.9573L16.6964 29.6093L16.9284 28.296L18.8977 28.6433C18.936 28.6503 18.9748 28.6536 19.0137 28.6533C19.3537 28.6468 19.6343 28.3855 19.6649 28.0468C19.6955 27.7081 19.4663 27.4007 19.133 27.3333L17.1637 26.986L17.3957 25.6727L19.365 26.0193C19.6037 26.0711 19.8517 25.9881 20.0112 25.803C20.1706 25.618 20.2161 25.3606 20.1298 25.1321C20.0434 24.9036 19.839 24.7406 19.597 24.7073L16.9704 24.2407C16.6079 24.1769 16.2624 24.4189 16.1984 24.7813L15.2664 30.034C15.2358 30.2084 15.2759 30.3879 15.3778 30.5327C15.4798 30.6776 15.6352 30.7759 15.8097 30.806Z" fill="#FF4136"/>
<path d="M21.0622 31.7333C21.4247 31.7971 21.7702 31.5551 21.8342 31.1927L22.2702 28.7213L23.1655 31.73C23.2496 32.0126 23.5093 32.2065 23.8042 32.2067H23.8429C24.1512 32.1885 24.4067 31.9609 24.4602 31.6567L25.3862 26.4C25.4344 26.1626 25.3499 25.9177 25.1657 25.7605C24.9814 25.6032 24.7263 25.5582 24.4994 25.643C24.2725 25.7278 24.1095 25.9291 24.0735 26.1687L23.6382 28.64L22.7422 25.6333C22.6534 25.3379 22.3734 25.142 22.0654 25.1598C21.7574 25.1776 21.5019 25.4043 21.4475 25.708L20.5215 30.96C20.4905 31.1343 20.5301 31.3137 20.6315 31.4588C20.733 31.6038 20.8879 31.7026 21.0622 31.7333Z" fill="#FF4136"/>
<path d="M26.5837 27.2909L27.8977 27.5222L27.087 32.1182C27.0232 32.4805 27.2648 32.8259 27.627 32.8902C27.6655 32.8974 27.7045 32.9009 27.7437 32.9009C28.0671 32.9006 28.3437 32.6682 28.3996 32.3496L29.2103 27.7536L30.523 27.9856C30.5615 27.9922 30.6006 27.9955 30.6397 27.9956C30.9841 27.9938 31.2705 27.73 31.3004 27.3868C31.3303 27.0437 31.0939 26.7342 30.755 26.6729L26.8157 25.9782C26.5787 25.9309 26.3346 26.0156 26.1779 26.1996C26.0211 26.3835 25.9761 26.6378 26.0604 26.8644C26.1446 27.0909 26.3448 27.2541 26.5837 27.2909Z" fill="#FF4136"/>
<path d="M17.3332 13.3332C17.3359 13.9625 17.563 14.5703 17.9738 15.0472L14.2178 20.3719L10.3245 19.6852C9.23713 19.4939 8.20047 20.2199 8.00847 21.3072L6.38647 30.4992C6.19716 31.5865 6.92262 32.6222 8.00916 32.8159L29.6758 36.6358C29.7914 36.6561 29.9085 36.6663 30.0258 36.6667C30.995 36.6645 31.8232 35.9677 31.9912 35.0132L33.6132 25.8212C33.804 24.7338 33.0777 23.6975 31.9905 23.5059L27.4285 22.7012L22.0285 15.0465C22.4384 14.5696 22.6647 13.962 22.6665 13.3332C22.6665 11.8604 21.4726 10.6665 19.9998 10.6665C18.5271 10.6665 17.3332 11.8604 17.3332 13.3332ZM32.1892 25.0925C32.2912 25.237 32.3311 25.4164 32.2998 25.5905L30.6785 34.7825C30.6145 35.1449 30.2689 35.3869 29.9065 35.3232L8.23982 31.5032C7.87862 31.4388 7.63727 31.0947 7.69982 30.7332L9.32116 21.5412C9.35098 21.3668 9.44974 21.2119 9.59516 21.1112C9.73993 21.0097 9.91905 20.9699 10.0932 21.0005L31.7598 24.8218C31.9334 24.8509 32.0881 24.9484 32.1892 25.0925ZM15.6692 20.6258L19.0598 15.8185C19.6637 16.0576 20.336 16.0576 20.9398 15.8185L25.5645 22.3705L15.6692 20.6258ZM21.3332 13.3332C21.3332 14.0696 20.7362 14.6665 19.9998 14.6665C19.2635 14.6665 18.6665 14.0696 18.6665 13.3332C18.6665 12.5968 19.2635 11.9998 19.9998 11.9998C20.7362 11.9998 21.3332 12.5968 21.3332 13.3332Z" fill="#FF4136"/>
</g>
<defs>
<clipPath id="clip0_2275_10238">
<rect width="40" height="40" fill="white"/>
</clipPath>
</defs>
</svg>
