<svg width="40" height="40" viewBox="0 0 40 40" fill="none" xmlns="http://www.w3.org/2000/svg">
<path d="M36.6074 7.51041C36.6074 7.51041 36.9009 4.53586 36.1826 3.81763M36.1826 3.81763C35.4601 3.09514 32.4902 3.39533 32.4902 3.39533M36.1826 3.81763L31.6667 8.33344" stroke="#FF4136" stroke-width="2" stroke-linecap="round" stroke-linejoin="round"/>
<path d="M36.6074 32.4895C36.6074 32.4895 36.9009 35.464 36.1826 36.1823M36.1826 36.1823C35.4601 36.9048 32.4902 36.6047 32.4902 36.6047M36.1826 36.1823L31.6667 31.6665" stroke="#FF4136" stroke-width="2" stroke-linecap="round" stroke-linejoin="round"/>
<path d="M3.81738 3.81761L8.33325 8.33344M3.81738 3.81761C4.53986 3.09514 7.5098 3.39533 7.5098 3.39533M3.81738 3.81761C3.09913 4.53586 3.3926 7.51039 3.3926 7.51039" stroke="#FF4136" stroke-width="2" stroke-linecap="round" stroke-linejoin="round"/>
<path d="M3.81738 36.1823L8.33325 31.6665M3.81738 36.1823C4.53986 36.9048 7.5098 36.6047 7.5098 36.6047M3.81738 36.1823C3.09913 35.4642 3.3926 32.4897 3.3926 32.4897" stroke="#FF4136" stroke-width="2" stroke-linecap="round" stroke-linejoin="round"/>
<path d="M31.6666 20.0002C31.6666 26.4435 26.4433 31.6668 19.9999 31.6668C13.5566 31.6668 8.33325 26.4435 8.33325 20.0002C8.33325 13.5568 13.5566 8.3335 19.9999 8.3335C26.4433 8.3335 31.6666 13.5568 31.6666 20.0002Z" stroke="#FF4136" stroke-width="2"/>
<path d="M19.8567 15.5023C18.0157 15.5023 16.6667 16.5725 16.6667 17.8147C16.6667 19.0567 17.5366 19.8333 20.0001 19.8333C22.7137 19.8333 23.3334 21.0707 23.3334 22.3127C23.3334 23.5548 22.1472 24.5358 19.8567 24.5358M19.8567 15.5023C21.3081 15.5023 22.0752 16.0104 22.6811 16.6943M19.8567 15.5023V14.0952M19.8567 24.5358C18.4054 24.5358 17.8411 24.2492 17.0417 23.5258M19.8567 24.5358V25.8482" stroke="#FF4136" stroke-width="2" stroke-linecap="round"/>
</svg>
