<svg xmlns="http://www.w3.org/2000/svg" width="220" height="44" viewBox="0 0 220 44" fill="none" role="img" aria-label="Viver Catarina">
  <g color="#FFFFFF">
    <rect x="2" y="24" width="9" height="18" rx="1.5" fill="currentColor"/>
    <rect x="14" y="10" width="11" height="32" rx="1.5" fill="currentColor"/>
    <rect x="28" y="18" width="9" height="24" rx="1.5" fill="currentColor"/>
    <rect x="14" y="6" width="11" height="4" rx="1" fill="#FFAF00"/>
    <path d="M36 8h4v3h-4V8Z" fill="#FFAF00"/>
    <path d="M38 11v7" stroke="#FFAF00" stroke-width="1.5" stroke-linecap="round"/>
    <path d="M34 14h8" stroke="#FFAF00" stroke-width="1.5" stroke-linecap="round"/>
    <rect x="4.5" y="28" width="2" height="2" rx="0.5" fill="#FFAF00" opacity="0.95"/>
    <rect x="4.5" y="33" width="2" height="2" rx="0.5" fill="#FFAF00" opacity="0.95"/>
    <rect x="17" y="16" width="2" height="2" rx="0.5" fill="#FFAF00" opacity="0.95"/>
    <rect x="21" y="16" width="2" height="2" rx="0.5" fill="#FFAF00" opacity="0.95"/>
    <rect x="17" y="22" width="2" height="2" rx="0.5" fill="#FFAF00" opacity="0.95"/>
    <rect x="21" y="22" width="2" height="2" rx="0.5" fill="#FFAF00" opacity="0.95"/>
    <rect x="17" y="28" width="2" height="2" rx="0.5" fill="#FFAF00" opacity="0.95"/>
    <rect x="21" y="28" width="2" height="2" rx="0.5" fill="#FFAF00" opacity="0.95"/>
    <rect x="30.5" y="24" width="2" height="2" rx="0.5" fill="#FFAF00" opacity="0.95"/>
    <rect x="30.5" y="30" width="2" height="2" rx="0.5" fill="#FFAF00" opacity="0.95"/>
  </g>
  <text x="52" y="21" fill="#FFFFFF" font-family="Inter, Plus Jakarta Sans, Arial, sans-serif" font-size="17" font-weight="700" letter-spacing="-0.02em">Viver Catarina</text>
  <text x="52" y="36" fill="#FFAF00" font-family="Inter, Plus Jakarta Sans, Arial, sans-serif" font-size="10.5" font-weight="600" letter-spacing="0.08em">IMÓVEIS NA PLANTA</text>
</svg>
