<svg xmlns="http://www.w3.org/2000/svg" viewBox="0 0 48 44" fill="none" aria-hidden="true">
  <rect x="2" y="24" width="9" height="18" rx="1.5" fill="#FFAF00"/>
  <rect x="14" y="10" width="11" height="32" rx="1.5" fill="#FFAF00"/>
  <rect x="28" y="18" width="9" height="24" rx="1.5" fill="#FFAF00"/>
  <rect x="14" y="6" width="11" height="4" rx="1" fill="#03060E"/>
  <path d="M36 8h4v3h-4V8Z" fill="#03060E"/>
  <path d="M38 11v7" stroke="#03060E" stroke-width="1.5" stroke-linecap="round"/>
  <path d="M34 14h8" stroke="#03060E" stroke-width="1.5" stroke-linecap="round"/>
  <rect x="4.5" y="28" width="2" height="2" rx="0.5" fill="#03060E" opacity="0.85"/>
  <rect x="4.5" y="33" width="2" height="2" rx="0.5" fill="#03060E" opacity="0.85"/>
  <rect x="17" y="16" width="2" height="2" rx="0.5" fill="#03060E" opacity="0.85"/>
  <rect x="21" y="16" width="2" height="2" rx="0.5" fill="#03060E" opacity="0.85"/>
  <rect x="17" y="22" width="2" height="2" rx="0.5" fill="#03060E" opacity="0.85"/>
  <rect x="21" y="22" width="2" height="2" rx="0.5" fill="#03060E" opacity="0.85"/>
  <rect x="17" y="28" width="2" height="2" rx="0.5" fill="#03060E" opacity="0.85"/>
  <rect x="21" y="28" width="2" height="2" rx="0.5" fill="#03060E" opacity="0.85"/>
  <rect x="30.5" y="24" width="2" height="2" rx="0.5" fill="#03060E" opacity="0.85"/>
  <rect x="30.5" y="30" width="2" height="2" rx="0.5" fill="#03060E" opacity="0.85"/>
</svg>
