<svg width="40" height="40" viewBox="0 0 40 40" fill="none" xmlns="http://www.w3.org/2000/svg">
<path d="M25.9999 11.3335C25.9999 8.0198 23.3137 5.3335 20 5.3335C16.6862 5.3335 14 8.01974 14 11.3335C14 14.6472 16.6862 17.3334 20 17.3334C23.3122 17.3297 25.9963 14.6456 25.9999 11.3335ZM15.3334 11.3335C15.3334 8.75614 17.4227 6.66687 20 6.66687C22.5772 6.66687 24.6666 8.7562 24.6666 11.3335C24.6666 13.9107 22.5772 16.0001 20 16.0001C17.4241 15.9968 15.3367 13.9094 15.3334 11.3335Z" fill="#FF4136"/>
<path d="M19.9997 33.3333C20.3678 33.3333 20.6663 33.0348 20.6663 32.6667C20.6663 32.2985 20.3678 32 19.9997 32C19.6315 32 19.333 32.2985 19.333 32.6667C19.333 33.0348 19.6315 33.3333 19.9997 33.3333Z" fill="#FF4136"/>
<path d="M6.00015 33.3333C6.36834 33.3333 6.66681 33.0348 6.66681 32.6667C6.66681 32.2985 6.36834 32 6.00015 32C5.63197 32 5.3335 32.2985 5.3335 32.6667C5.3335 33.0348 5.63197 33.3333 6.00015 33.3333Z" fill="#FF4136"/>
<path d="M33.9997 33.3333C34.3679 33.3333 34.6663 33.0348 34.6663 32.6667C34.6663 32.2985 34.3679 32 33.9997 32C33.6315 32 33.333 32.2985 33.333 32.6667C33.333 33.0348 33.6315 33.3333 33.9997 33.3333Z" fill="#FF4136"/>
<path d="M7.33332 24.6666C6.22879 24.6666 5.33335 25.5621 5.33335 26.6666V28.9639L0.313352 32.1012C0.16343 32.195 0.0568336 32.3443 0.0170746 32.5167C-0.0226844 32.689 0.00763018 32.8699 0.101348 33.0199C0.224059 33.2124 0.438441 33.327 0.666692 33.3219V37.9999C0.666692 39.1044 1.56213 39.9999 2.66666 39.9999H9.33329C10.4378 39.9999 11.3333 39.1044 11.3333 37.9999V33.3333C11.6307 33.3333 11.8921 33.1363 11.9741 32.8505C12.0561 32.5645 11.9388 32.259 11.6866 32.1013L6.66667 28.964V26.6667C6.66667 26.2985 6.96512 26 7.33332 26H19.3332V28.964L14.3133 32.1013C14.1633 32.195 14.0568 32.3444 14.017 32.5167C13.9772 32.689 14.0075 32.87 14.1013 33.02C14.2246 33.2119 14.4385 33.3262 14.6666 33.322V38C14.6666 39.1045 15.562 39.9999 16.6666 39.9999H23.3332C24.4377 39.9999 25.3332 39.1045 25.3332 38V33.3334C25.6306 33.3334 25.8921 33.1364 25.974 32.8505C26.056 32.5646 25.9387 32.259 25.6865 32.1014L20.6666 28.964V26.0001H32.6665C33.0347 26.0001 33.3331 26.2985 33.3331 26.6667V28.964L28.3132 32.1014C28.1633 32.1951 28.0567 32.3445 28.0169 32.5168C27.9772 32.6891 28.0075 32.8701 28.1012 33.0201C28.2242 33.2123 28.4383 33.3267 28.6665 33.3221V38C28.6665 39.1046 29.562 40 30.6665 40H37.3331C38.4377 40 39.3331 39.1046 39.3331 38V33.3334C39.6305 33.3334 39.892 33.1364 39.9739 32.8506C40.0559 32.5647 39.9387 32.2591 39.6864 32.1014L34.6665 28.9641V26.6668C34.6665 25.5623 33.7711 24.6668 32.6665 24.6668H20.6665V22.6414C20.7999 22.6321 20.9332 22.6233 21.0745 22.6094C21.6619 22.5377 22.1307 22.0857 22.2239 21.5014L22.4132 20.3494C23.202 20.1372 23.9596 19.8223 24.6665 19.4128L25.6185 20.0947C26.1037 20.4459 26.7636 20.4304 27.2318 20.0568C27.5365 19.7995 27.7852 19.5728 28.0125 19.3455C28.2704 19.0896 28.5152 18.8208 28.7458 18.5401C29.1031 18.0736 29.1115 17.4278 28.7665 16.9521L28.0791 16.0002C28.4885 15.294 28.8034 14.537 29.0158 13.7488L30.1657 13.5601C30.7534 13.4648 31.2067 12.9914 31.2764 12.4001C31.3524 11.6882 31.3524 10.9701 31.2764 10.2582C31.2047 9.67083 30.7528 9.20198 30.1685 9.10885L29.0164 8.9195C28.8039 8.13086 28.4888 7.37346 28.0791 6.66685L28.7611 5.71488C29.1101 5.23394 29.0987 4.58003 28.7331 4.11157C28.5085 3.83564 28.2688 3.57238 28.0151 3.32293C27.7593 3.06502 27.4905 2.82026 27.2098 2.58963C26.7438 2.23081 26.097 2.22236 25.6218 2.56896L24.6665 3.25431C23.9596 2.84483 23.202 2.52993 22.4131 2.31766L22.2244 1.16769C22.1306 0.580022 21.6576 0.126294 21.0665 0.0570132C20.3545 -0.0190044 19.6365 -0.0190044 18.9245 0.0570132C18.3372 0.128738 17.8683 0.580683 17.7752 1.16498L17.5865 2.31766C16.7977 2.52993 16.0401 2.84483 15.3332 3.25431L14.3832 2.57233C13.9011 2.22328 13.2461 2.2361 12.7779 2.60364C12.5172 2.81696 12.2519 3.05895 11.9959 3.3156C11.7364 3.56948 11.4915 3.83788 11.2626 4.11956C10.8999 4.58624 10.889 5.23638 11.2359 5.71488L11.9206 6.66685C11.5113 7.37306 11.1964 8.13 10.984 8.91818L9.83398 9.10681C9.24565 9.20085 8.79172 9.67492 8.7233 10.2668C8.64689 10.9794 8.64689 11.6982 8.7233 12.4108C8.79575 12.9971 9.24724 13.4648 9.83061 13.5581L10.9826 13.7474C11.1954 14.5362 11.5107 15.2935 11.9206 16.0001L11.244 16.9447C10.891 17.4276 10.9017 18.0861 11.27 18.5574C11.4833 18.8181 11.7253 19.0834 11.988 19.3461C12.2166 19.5747 12.4653 19.8014 12.7933 20.0794C13.2595 20.4377 13.906 20.4462 14.3813 20.1L15.3333 19.4127C16.0395 19.8221 16.7964 20.137 17.5846 20.3494L17.7733 21.4993C17.8673 22.0877 18.3414 22.5416 18.9333 22.61C19.0713 22.624 19.2 22.6327 19.3333 22.6413V24.6666H7.33332ZM5.33335 38.6666V35.9999H6.66667V38.6666H5.33335ZM9.33329 38.6666H7.99998V35.9999C7.99998 35.2635 7.403 34.6666 6.66667 34.6666H5.33335C4.59695 34.6666 4.00004 35.2636 4.00004 35.9999V38.6666H2.66666C2.29846 38.6666 2 38.3681 2 37.9999V32.6193L5.99994 30.12L9.99988 32.6193V37.9999C9.99995 38.368 9.70149 38.6666 9.33329 38.6666ZM19.3332 38.6666V35.9999H20.6665V38.6666H19.3332ZM23.3331 38.6666H21.9998V35.9999C21.9998 35.2635 21.4029 34.6666 20.6665 34.6666H19.3332C18.5968 34.6666 17.9999 35.2636 17.9999 35.9999V38.6666H16.6666C16.2984 38.6666 15.9999 38.3681 15.9999 37.9999V32.6193L19.9999 30.12L23.9998 32.6193V37.9999C23.9998 38.368 23.7013 38.6666 23.3331 38.6666ZM33.3331 38.6666V35.9999H34.6664V38.6666H33.3331ZM37.333 38.6666H35.9997V35.9999C35.9997 35.2635 35.4027 34.6666 34.6664 34.6666H33.3331C32.5967 34.6666 31.9997 35.2636 31.9997 35.9999V38.6666H30.6664C30.2982 38.6666 29.9998 38.3681 29.9998 37.9999V32.6193L33.9997 30.12L37.9997 32.6193V37.9999C37.9997 38.368 37.7012 38.6666 37.333 38.6666ZM18.8305 19.6987C18.7864 19.4293 18.5825 19.214 18.3159 19.1553C17.3737 18.9502 16.4762 18.5768 15.6665 18.0534C15.4367 17.9046 15.1392 17.9114 14.9165 18.0707L13.6272 19.0373C13.3885 18.8373 13.1558 18.6286 12.9285 18.4013C12.7132 18.1884 12.51 17.9636 12.3198 17.728L13.2605 16.4147C13.4195 16.1928 13.4271 15.8965 13.2799 15.6666C12.7565 14.8575 12.3832 13.9608 12.1779 13.0193C12.1193 12.7527 11.904 12.5488 11.6346 12.5046L10.0499 12.2666C10.0172 11.9566 10.0005 11.645 9.99988 11.3332C10.0002 11.0297 10.0162 10.7264 10.0479 10.4246L11.6346 10.1639C11.904 10.1198 12.1193 9.91585 12.1779 9.64923C12.383 8.7071 12.7564 7.80962 13.2799 6.99991C13.4287 6.77007 13.4218 6.47261 13.2626 6.24991L12.3026 4.95325C12.4999 4.71284 12.7105 4.4836 12.9333 4.26658C13.1461 4.05127 13.3709 3.84805 13.6066 3.65791L14.9199 4.59859C15.1424 4.75551 15.438 4.76132 15.6665 4.61325C16.4756 4.08991 17.3724 3.71662 18.3138 3.51129C18.5804 3.45264 18.7843 3.23734 18.8285 2.96794L19.0665 1.38326C19.6786 1.31794 20.2958 1.31794 20.9078 1.38326L21.1685 2.96992C21.2126 3.23932 21.4166 3.45462 21.6832 3.51327C22.6255 3.71775 23.5232 4.09037 24.3332 4.61325C24.563 4.76205 24.8605 4.75518 25.0832 4.59594L26.3799 3.63598C26.6228 3.83616 26.8555 4.04843 27.0772 4.27199C27.2909 4.48142 27.4913 4.70413 27.6772 4.93865L26.7365 6.25195C26.5784 6.47439 26.5718 6.77073 26.7199 6.99998C27.2431 7.80909 27.6165 8.70585 27.8218 9.64732C27.8805 9.91394 28.0958 10.1178 28.3652 10.162L29.9498 10.3986C29.9826 10.7091 29.9993 11.0211 29.9998 11.3333C29.9995 11.6369 29.9835 11.9401 29.9518 12.242L28.3652 12.5026C28.0958 12.5468 27.8805 12.7507 27.8218 13.0173C27.6167 13.9594 27.2433 14.8569 26.7199 15.6666C26.5711 15.8965 26.5779 16.1939 26.7372 16.4166L27.6971 17.7133C27.5131 17.9387 27.3011 18.1707 27.0678 18.4047C26.8344 18.6387 26.6091 18.838 26.3945 19.0133L25.0812 18.0727C24.8593 17.9137 24.563 17.906 24.3331 18.0533C23.524 18.5766 22.6273 18.9499 21.6858 19.1553C21.4192 19.2139 21.2153 19.4292 21.1711 19.6986L20.9331 21.2833C20.321 21.3486 19.7038 21.3486 19.0917 21.2833L18.8305 19.6987Z" fill="#FF4136"/>
</svg>
