<svg width="40" height="40" viewBox="0 0 40 40" fill="none" xmlns="http://www.w3.org/2000/svg">
<path d="M19.9971 3.3335C14.9841 3.3335 11.7337 6.69848 7.8896 7.925C6.32657 8.42371 5.54504 8.67306 5.22875 9.02458C4.91247 9.3761 4.81985 9.88975 4.63462 10.917C2.65247 21.9102 6.98492 32.0735 17.3173 36.0293C18.4274 36.4543 18.9824 36.6668 20.0026 36.6668C21.0226 36.6668 21.5778 36.4543 22.6878 36.0293C33.0194 32.0733 37.3478 21.9102 35.3651 10.917C35.1798 9.88956 35.0871 9.37583 34.7708 9.02431C34.4544 8.6728 33.6729 8.42358 32.1099 7.92515C28.2643 6.69875 25.0103 3.3335 19.9971 3.3335Z" stroke="#FF4136" stroke-width="2" stroke-linecap="round" stroke-linejoin="round"/>
<path d="M15 21.6667C15 21.6667 16.6667 21.6667 18.3333 25C18.3333 25 23.6275 16.6667 28.3333 15" stroke="#FF4136" stroke-width="2" stroke-linecap="round" stroke-linejoin="round"/>
</svg>
