<svg width="39" height="40" viewBox="0 0 39 40" fill="none" xmlns="http://www.w3.org/2000/svg">
<path d="M17.5776 7.70211C17.5776 5.11945 15.4764 3.01831 12.8938 3.01831C10.3111 3.01831 8.20996 5.11945 8.20996 7.70211C8.20996 10.2848 10.3111 12.3859 12.8938 12.3859C15.4764 12.3859 17.5776 10.2848 17.5776 7.70211ZM9.3822 7.70211C9.3822 5.76586 10.9575 4.19047 12.8938 4.19047C14.8302 4.19047 16.4055 5.76578 16.4055 7.70211C16.4055 9.63844 14.8301 11.2137 12.8938 11.2137C10.9574 11.2137 9.3822 9.63844 9.3822 7.70211Z" fill="#FF4136"/>
<path d="M14.2043 5.76758L12.325 7.99492L11.6109 7.00616L10.6606 7.6925L12.2533 9.89749L15.1002 6.52347L14.2043 5.76758Z" fill="#FF4136"/>
<path d="M4.1123 14.1831H14.652V15.3553H4.1123V14.1831Z" fill="#FF4136"/>
<path d="M4.1123 17.1526H14.652V18.3247H4.1123V17.1526Z" fill="#FF4136"/>
<path d="M4.1123 20.0391H14.652V21.2112H4.1123V20.0391Z" fill="#FF4136"/>
<path d="M4.1123 22.9377H9.96334V24.1099H4.1123V22.9377Z" fill="#FF4136"/>
<path d="M36.8248 33.1819L34.0577 31.5537L33.4633 32.564L36.2305 34.1921C36.9664 34.6252 37.2129 35.5763 36.7799 36.3121C36.3468 37.0482 35.3958 37.2943 34.6599 36.8615L26.8019 32.2379L28.3725 29.5685L32.4574 31.972L33.0517 30.9618L28.9549 28.5512C29.1362 28.1415 29.1745 27.6861 29.0605 27.2459C28.9267 26.7296 28.5998 26.2963 28.1402 26.0258C27.6804 25.7554 27.1428 25.68 26.6266 25.8138C26.3093 25.8961 26.0236 26.0514 25.7875 26.2655V22.3929C26.1869 21.6849 26.1608 20.8474 25.7875 20.1822V0H6.20386L0 6.21417V21.177H1.17216V7.04274H7.03297V1.17216H24.6154V19.1383L19.8186 16.3159C18.7483 15.686 17.3653 16.0446 16.7356 17.1149C16.4305 17.6334 16.3456 18.2396 16.4965 18.8219C16.6134 19.2728 16.8612 19.6671 17.2076 19.9639L12.9836 27.1427C12.5559 26.984 12.0908 26.9588 11.64 27.0758C11.0576 27.2267 10.5689 27.5953 10.2638 28.1138C9.83318 28.8458 9.86499 29.724 10.2703 30.4076H1.17216V22.3883H0V31.5797H11.7135L14.7521 33.3675H8.2149V36.0635H6.25153V40H24.2247V36.0635H22.2711V33.3675H19.3294C19.6064 32.8627 19.68 32.2809 19.5348 31.7211C19.5224 31.6732 19.508 31.6262 19.4927 31.5797H22.6601C22.467 32.4079 22.8214 33.3019 23.5921 33.7554C23.9031 33.9384 24.2497 34.032 24.6013 34.032C24.7694 34.032 24.9386 34.0106 25.1057 33.9674C25.5458 33.8533 25.9252 33.5984 26.1953 33.2412L34.0654 37.8717C34.4976 38.1261 34.9721 38.247 35.4406 38.247C36.3737 38.247 37.2836 37.7673 37.7901 36.9067C38.5509 35.6136 38.1179 33.9427 36.8248 33.1819ZM5.86081 5.87057H1.99932L5.86081 2.00268V5.87057ZM17.7459 17.7092C17.8922 17.4607 18.1265 17.2839 18.4057 17.2115C18.496 17.1881 18.5875 17.1766 18.6784 17.1766C18.8685 17.1766 19.056 17.2273 19.2241 17.3262L24.374 20.3563C24.8872 20.6582 25.0591 21.3215 24.7571 21.8347C24.4551 22.3478 23.792 22.5196 23.2788 22.2178L18.1279 19.187C17.8798 19.0406 17.7035 18.8066 17.6312 18.5277C17.5588 18.2485 17.5995 17.9579 17.7459 17.7092ZM24.6154 23.3942V26.8539L21.9393 25.284L23.0482 23.3994C23.3006 23.4925 23.5626 23.5386 23.8226 23.5386C24.094 23.5386 24.3625 23.4886 24.6154 23.3942ZM18.1996 20.5892L22.0193 22.8368L17.8318 29.9536L14.0121 27.7061L18.1996 20.5892ZM11.6573 30.1866C11.1441 29.8846 10.9722 29.2214 11.2742 28.7082C11.4204 28.4595 11.6548 28.2828 11.934 28.2105C12.0243 28.187 12.1158 28.1755 12.2067 28.1755C12.3967 28.1755 12.584 28.226 12.7521 28.3249L17.9025 31.3553C18.1511 31.5016 18.3278 31.736 18.4002 32.0152C18.4726 32.2944 18.4318 32.5851 18.2856 32.8336V32.8337C18.1393 33.0823 17.905 33.2591 17.6258 33.3314C17.3465 33.4038 17.0559 33.3631 16.8072 33.2168L11.6573 30.1866ZM21.0989 34.5397V36.0635H17.3968V37.2357H23.0525V38.8278H7.42369V37.2357H16.2149V36.0635H9.38706V34.5397H21.0989ZM18.9247 30.4075L19.9326 28.6946L22.8439 30.4075H18.9247ZM20.527 27.6843L21.345 26.2942L24.5567 28.1784L23.7363 29.5726L20.527 27.6843ZM25.3155 32.4525C25.2037 32.6424 25.0248 32.7774 24.8115 32.8326C24.5983 32.8879 24.3763 32.8568 24.1865 32.7451C23.7946 32.5145 23.6634 32.008 23.8939 31.6162L26.4167 27.3286C26.5284 27.1387 26.7074 27.0038 26.9206 26.9485C26.9896 26.9306 27.0594 26.9218 27.1288 26.9218C27.274 26.9218 27.4172 26.9605 27.5456 27.0361C27.7355 27.1478 27.8705 27.3267 27.9257 27.5399C27.981 27.7529 27.9499 27.9746 27.8386 28.1644L25.3155 32.4525Z" fill="#FF4136"/>
</svg>
