<svg width="40" height="40" viewBox="0 0 40 40" fill="none" xmlns="http://www.w3.org/2000/svg">
<path d="M36.6072 7.51016C36.6072 7.51016 36.9007 4.53562 36.1823 3.81738M36.1823 3.81738C35.4598 3.0949 32.49 3.39508 32.49 3.39508M36.1823 3.81738L31.6665 8.3332" stroke="#FF4136" stroke-width="2" stroke-linecap="round" stroke-linejoin="round"/>
<path d="M36.6072 32.4897C36.6072 32.4897 36.9007 35.4642 36.1823 36.1826M36.1823 36.1826C35.4598 36.9051 32.49 36.6049 32.49 36.6049M36.1823 36.1826L31.6665 31.6667" stroke="#FF4136" stroke-width="2" stroke-linecap="round" stroke-linejoin="round"/>
<path d="M3.81763 3.81737L8.33349 8.3332M3.81763 3.81737C4.54011 3.0949 7.51004 3.39508 7.51004 3.39508M3.81763 3.81737C3.09938 4.53562 3.39284 7.51015 3.39284 7.51015" stroke="#FF4136" stroke-width="2" stroke-linecap="round" stroke-linejoin="round"/>
<path d="M3.81763 36.1826L8.33349 31.6667M3.81763 36.1826C4.54011 36.9051 7.51004 36.6049 7.51004 36.6049M3.81763 36.1826C3.09938 35.4644 3.39284 32.4899 3.39284 32.4899" stroke="#FF4136" stroke-width="2" stroke-linecap="round" stroke-linejoin="round"/>
<path d="M31.6668 19.9999C31.6668 26.4433 26.4435 31.6666 20.0002 31.6666C13.5568 31.6666 8.3335 26.4433 8.3335 19.9999C8.3335 13.5566 13.5568 8.33325 20.0002 8.33325C26.4435 8.33325 31.6668 13.5566 31.6668 19.9999Z" stroke="#FF4136" stroke-width="2"/>
<path d="M19.8565 15.502C18.0155 15.502 16.6665 16.5723 16.6665 17.8144C16.6665 19.0564 17.5363 19.8331 19.9998 19.8331C22.7135 19.8331 23.3332 21.0704 23.3332 22.3124C23.3332 23.5546 22.147 24.5356 19.8565 24.5356M19.8565 15.502C21.3078 15.502 22.075 16.0101 22.6808 16.6941M19.8565 15.502V14.095M19.8565 24.5356C18.4052 24.5356 17.8408 24.2489 17.0415 23.5256M19.8565 24.5356V25.8479" stroke="#FF4136" stroke-width="2" stroke-linecap="round"/>
</svg>
