<svg width="40" height="40" viewBox="0 0 40 40" fill="none" xmlns="http://www.w3.org/2000/svg">
<path d="M20.0011 2.66479C19.6055 2.66479 19.2188 2.7821 18.8899 3.00187C18.561 3.22164 18.3046 3.53402 18.1532 3.89949C18.0018 4.26496 17.9622 4.66711 18.0394 5.05509C18.1166 5.44307 18.3071 5.79945 18.5868 6.07917C18.8665 6.35889 19.2229 6.54938 19.6109 6.62655C19.9989 6.70373 20.401 6.66412 20.7665 6.51274C21.1319 6.36135 21.4443 6.105 21.6641 5.77608C21.8839 5.44717 22.0012 5.06047 22.0012 4.66489C22.0012 4.13443 21.7904 3.6257 21.4154 3.25061C21.0403 2.87552 20.5315 2.66479 20.0011 2.66479ZM20.0011 5.33159C19.8692 5.33159 19.7403 5.29249 19.6307 5.21923C19.521 5.14597 19.4356 5.04185 19.3851 4.92002C19.3347 4.7982 19.3215 4.66415 19.3472 4.53482C19.3729 4.4055 19.4364 4.2867 19.5296 4.19346C19.6229 4.10022 19.7417 4.03673 19.871 4.011C20.0003 3.98528 20.1344 3.99848 20.2562 4.04894C20.378 4.0994 20.4822 4.18485 20.5554 4.29449C20.6287 4.40413 20.6678 4.53303 20.6678 4.66489C20.6678 4.84171 20.5975 5.01129 20.4725 5.13632C20.3475 5.26135 20.1779 5.33159 20.0011 5.33159Z" fill="#FF4136"/>
<path d="M38.0018 13.3321H35.1837L33.3169 6.15974C33.5465 5.95899 33.727 5.70822 33.8445 5.42674C33.962 5.14527 34.0133 4.84059 33.9945 4.53616C33.9757 4.23173 33.8873 3.93568 33.7361 3.67079C33.5849 3.4059 33.3749 3.17923 33.1223 3.00825C32.8698 2.83727 32.5813 2.72652 32.2792 2.68454C31.9771 2.64256 31.6694 2.67046 31.3798 2.7661C31.0902 2.86173 30.8263 3.02255 30.6086 3.23618C30.3909 3.44981 30.2252 3.71054 30.1241 3.99831H24.6145C24.4551 2.88835 23.9009 1.87306 23.0535 1.13867C22.2061 0.404271 21.1223 0 20.0009 0C18.8796 0 17.7958 0.404271 16.9484 1.13867C16.101 1.87306 15.5468 2.88835 15.3874 3.99831H9.8778C9.77723 3.70969 9.61169 3.44804 9.39394 3.23356C9.1762 3.01908 8.91209 2.8575 8.62198 2.7613C8.33188 2.6651 8.02355 2.63685 7.7208 2.67873C7.41805 2.7206 7.12897 2.83149 6.87587 3.00283C6.62278 3.17417 6.41244 3.40137 6.26109 3.6669C6.10975 3.93244 6.02144 4.2292 6.00299 4.53428C5.98455 4.83935 6.03645 5.14459 6.1547 5.42643C6.27295 5.70826 6.45438 5.95916 6.68498 6.15974L4.81823 13.3321H4.66689C4.49008 13.3321 4.32053 13.4024 4.19553 13.5274L0.195343 17.5276C0.0703037 17.6526 3.776e-05 17.8222 0 17.999V29.9995C0 30.53 0.210724 31.0387 0.585814 31.4138C0.960904 31.7889 1.46964 31.9996 2.00009 31.9996H14.0007C14.5311 31.9996 15.0398 31.7889 15.4149 31.4138C15.79 31.0387 16.0008 30.53 16.0008 29.9995V15.3322C16.0008 14.8017 15.79 14.293 15.4149 13.9179C15.0398 13.5428 14.5311 13.3321 14.0007 13.3321H11.1825L9.31577 6.15974C9.57048 5.93601 9.76391 5.65102 9.8778 5.3317H15.3874C15.4982 6.09164 15.7947 6.81255 16.2505 7.43061C16.7064 8.04867 17.3076 8.54484 18.0008 8.8752V32.0943C17.4301 32.2417 16.9242 32.574 16.5623 33.0394C16.2004 33.5048 16.003 34.0769 16.0008 34.6664V35.3331H8.33373C7.71486 35.3331 7.12134 35.579 6.68373 36.0166C6.24613 36.4542 6.00028 37.0477 6.00028 37.6666C6.00028 38.2854 6.24613 38.8789 6.68373 39.3166C7.12134 39.7542 7.71486 40 8.33373 40H31.6682C32.287 40 32.8805 39.7542 33.3181 39.3166C33.7558 38.8789 34.0016 38.2854 34.0016 37.6666C34.0016 37.0477 33.7558 36.4542 33.3181 36.0166C32.8805 35.579 32.287 35.3331 31.6682 35.3331H24.0011V34.6664C23.9989 34.0769 23.8014 33.5048 23.4396 33.0394C23.0777 32.574 22.5718 32.2417 22.001 32.0943V8.8752C22.6943 8.54484 23.2955 8.04867 23.7513 7.43061C24.2072 6.81255 24.5036 6.09164 24.6145 5.3317H30.1241C30.238 5.65102 30.4314 5.93601 30.6861 6.15974L28.8194 13.3321H28.668C28.4912 13.3321 28.3217 13.4024 28.1967 13.5274L24.1965 17.5276C24.0714 17.6526 24.0012 17.8222 24.0011 17.999V29.9995C24.0011 30.53 24.2119 31.0387 24.5869 31.4138C24.962 31.7889 25.4708 31.9996 26.0012 31.9996H38.0018C38.5322 31.9996 39.041 31.7889 39.4161 31.4138C39.7912 31.0387 40.0019 30.53 40.0019 29.9995V15.3322C40.0019 14.8017 39.7912 14.293 39.4161 13.9179C39.041 13.5428 38.5322 13.3321 38.0018 13.3321ZM32.0015 3.99831C32.1334 3.99831 32.2623 4.03741 32.3719 4.11067C32.4815 4.18392 32.567 4.28805 32.6175 4.40987C32.6679 4.53169 32.6811 4.66574 32.6554 4.79507C32.6297 4.9244 32.5662 5.04319 32.4729 5.13643C32.3797 5.22967 32.2609 5.29317 32.1316 5.31889C32.0022 5.34462 31.8682 5.33141 31.7464 5.28095C31.6245 5.23049 31.5204 5.14504 31.4472 5.0354C31.3739 4.92577 31.3348 4.79687 31.3348 4.66501C31.3348 4.48819 31.405 4.31861 31.5301 4.19358C31.6551 4.06855 31.8247 3.99831 32.0015 3.99831ZM8.00038 3.99831C8.13224 3.99831 8.26114 4.03741 8.37077 4.11067C8.48041 4.18392 8.56586 4.28805 8.61633 4.40987C8.66679 4.53169 8.67999 4.66574 8.65426 4.79507C8.62854 4.9244 8.56504 5.04319 8.4718 5.13643C8.37856 5.22967 8.25977 5.29317 8.13044 5.31889C8.00112 5.34462 7.86706 5.33141 7.74524 5.28095C7.62342 5.23049 7.5193 5.14504 7.44604 5.0354C7.37278 4.92577 7.33368 4.79687 7.33368 4.66501C7.33368 4.48819 7.40392 4.31861 7.52895 4.19358C7.65398 4.06855 7.82356 3.99831 8.00038 3.99831ZM4.00019 15.6082V16.6656C4.00019 16.8424 3.92995 17.012 3.80492 17.137C3.67989 17.262 3.51031 17.3323 3.33349 17.3323H2.27611L4.00019 15.6082ZM14.6674 15.3322V29.9995C14.6674 30.1763 14.5971 30.3459 14.4721 30.471C14.3471 30.596 14.1775 30.6662 14.0007 30.6662H2.00009C1.82327 30.6662 1.6537 30.596 1.52867 30.471C1.40364 30.3459 1.3334 30.1763 1.3334 29.9995V18.6657H3.33349C3.86395 18.6657 4.37268 18.4549 4.74777 18.0799C5.12286 17.7048 5.33358 17.196 5.33358 16.6656V14.6655H14.0007C14.1775 14.6655 14.3471 14.7357 14.4721 14.8607C14.5971 14.9858 14.6674 15.1554 14.6674 15.3322ZM9.80446 13.3321H6.19629L7.93371 6.65843C7.95637 6.65843 7.97771 6.6651 8.00038 6.6651C8.02304 6.6651 8.04505 6.6591 8.06705 6.65843L9.80446 13.3321ZM32.6682 37.6666C32.6682 37.9318 32.5628 38.1862 32.3753 38.3737C32.1878 38.5612 31.9334 38.6666 31.6682 38.6666H8.33373C8.0685 38.6666 7.81413 38.5612 7.62659 38.3737C7.43904 38.1862 7.33368 37.9318 7.33368 37.6666C7.33368 37.4013 7.43904 37.147 7.62659 36.9594C7.81413 36.7719 8.0685 36.6665 8.33373 36.6665H31.6682C31.9334 36.6665 32.1878 36.7719 32.3753 36.9594C32.5628 37.147 32.6682 37.4013 32.6682 37.6666ZM22.6677 34.6664V35.3331H17.3341V34.6664C17.3341 34.3128 17.4746 33.9736 17.7247 33.7236C17.9748 33.4735 18.3139 33.333 18.6675 33.333H21.3343C21.688 33.333 22.0271 33.4735 22.2772 33.7236C22.5273 33.9736 22.6677 34.3128 22.6677 34.6664ZM20.6676 31.9996H19.3342V9.27856C19.7759 9.34967 20.226 9.34967 20.6676 9.27856V31.9996ZM20.0009 7.9985C19.3416 7.9985 18.6971 7.80299 18.149 7.4367C17.6008 7.07041 17.1735 6.54979 16.9212 5.94068C16.6689 5.33156 16.6029 4.66131 16.7315 4.01467C16.8601 3.36804 17.1776 2.77407 17.6438 2.30787C18.11 1.84167 18.704 1.52419 19.3506 1.39557C19.9972 1.26694 20.6675 1.33296 21.2766 1.58526C21.8857 1.83757 22.4063 2.26483 22.7726 2.81302C23.1389 3.36121 23.3344 4.0057 23.3344 4.66501C23.3334 5.54878 22.9818 6.39605 22.3569 7.02097C21.732 7.64589 20.8847 7.99744 20.0009 7.9985ZM31.9348 6.65843C31.9575 6.65843 31.9788 6.6651 32.0015 6.6651C32.0242 6.6651 32.0462 6.6591 32.0682 6.65843L33.8056 13.3321H30.1974L31.9348 6.65843ZM28.0013 15.6082V16.6656C28.0013 16.8424 27.9311 17.012 27.806 17.137C27.681 17.262 27.5114 17.3323 27.3346 17.3323H26.2772L28.0013 15.6082ZM38.6685 29.9995C38.6685 30.1763 38.5982 30.3459 38.4732 30.471C38.3482 30.596 38.1786 30.6662 38.0018 30.6662H26.0012C25.8244 30.6662 25.6548 30.596 25.5298 30.471C25.4048 30.3459 25.3345 30.1763 25.3345 29.9995V18.6657H27.3346C27.8651 18.6657 28.3738 18.4549 28.7489 18.0799C29.124 17.7048 29.3347 17.196 29.3347 16.6656V14.6655H38.0018C38.1786 14.6655 38.3482 14.7357 38.4732 14.8607C38.5982 14.9858 38.6685 15.1554 38.6685 15.3322V29.9995Z" fill="#FF4136"/>
<path d="M4.6667 19.999C4.48988 19.999 4.3203 20.0693 4.19527 20.1943C4.07024 20.3193 4 20.4889 4 20.6657C4 20.8425 4.07024 21.0121 4.19527 21.1371C4.3203 21.2622 4.48988 21.3324 4.6667 21.3324H6.66679C6.84361 21.3324 7.01319 21.2622 7.13822 21.1371C7.26325 21.0121 7.33349 20.8425 7.33349 20.6657C7.33349 20.4889 7.26325 20.3193 7.13822 20.1943C7.01319 20.0693 6.84361 19.999 6.66679 19.999H4.6667Z" fill="#FF4136"/>
<path d="M6.66679 25.3325H4.6667C4.48988 25.3325 4.3203 25.4028 4.19527 25.5278C4.07024 25.6528 4 25.8224 4 25.9992C4 26.176 4.07024 26.3456 4.19527 26.4706C4.3203 26.5957 4.48988 26.6659 4.6667 26.6659H6.66679C6.84361 26.6659 7.01319 26.5957 7.13822 26.4706C7.26325 26.3456 7.33349 26.176 7.33349 25.9992C7.33349 25.8224 7.26325 25.6528 7.13822 25.5278C7.01319 25.4028 6.84361 25.3325 6.66679 25.3325Z" fill="#FF4136"/>
<path d="M9.33369 21.3324H10.6671C10.8439 21.3324 11.0135 21.2622 11.1385 21.1371C11.2635 21.0121 11.3338 20.8425 11.3338 20.6657C11.3338 20.4889 11.2635 20.3193 11.1385 20.1943C11.0135 20.0693 10.8439 19.999 10.6671 19.999H9.33369C9.15687 19.999 8.98729 20.0693 8.86226 20.1943C8.73723 20.3193 8.66699 20.4889 8.66699 20.6657C8.66699 20.8425 8.73723 21.0121 8.86226 21.1371C8.98729 21.2622 9.15687 21.3324 9.33369 21.3324Z" fill="#FF4136"/>
<path d="M4 23.3325C4 23.5093 4.07024 23.6789 4.19527 23.8039C4.3203 23.9289 4.48988 23.9992 4.6667 23.9992H8.00019C8.17701 23.9992 8.34658 23.9289 8.47161 23.8039C8.59664 23.6789 8.66689 23.5093 8.66689 23.3325C8.66689 23.1557 8.59664 22.9861 8.47161 22.861C8.34658 22.736 8.17701 22.6658 8.00019 22.6658H4.6667C4.48988 22.6658 4.3203 22.736 4.19527 22.861C4.07024 22.9861 4 23.1557 4 23.3325Z" fill="#FF4136"/>
<path d="M28.6682 21.3324H30.6683C30.8451 21.3324 31.0147 21.2622 31.1397 21.1371C31.2647 21.0121 31.335 20.8425 31.335 20.6657C31.335 20.4889 31.2647 20.3193 31.1397 20.1943C31.0147 20.0693 30.8451 19.999 30.6683 19.999H28.6682C28.4913 19.999 28.3218 20.0693 28.1967 20.1943C28.0717 20.3193 28.0015 20.4889 28.0015 20.6657C28.0015 20.8425 28.0717 21.0121 28.1967 21.1371C28.3218 21.2622 28.4913 21.3324 28.6682 21.3324Z" fill="#FF4136"/>
<path d="M30.6683 25.3325H28.6682C28.4913 25.3325 28.3218 25.4028 28.1967 25.5278C28.0717 25.6528 28.0015 25.8224 28.0015 25.9992C28.0015 26.176 28.0717 26.3456 28.1967 26.4706C28.3218 26.5957 28.4913 26.6659 28.6682 26.6659H30.6683C30.8451 26.6659 31.0147 26.5957 31.1397 26.4706C31.2647 26.3456 31.335 26.176 31.335 25.9992C31.335 25.8224 31.2647 25.6528 31.1397 25.5278C31.0147 25.4028 30.8451 25.3325 30.6683 25.3325Z" fill="#FF4136"/>
<path d="M34.6681 19.999H33.3347C33.1578 19.999 32.9883 20.0693 32.8632 20.1943C32.7382 20.3193 32.668 20.4889 32.668 20.6657C32.668 20.8425 32.7382 21.0121 32.8632 21.1371C32.9883 21.2622 33.1578 21.3324 33.3347 21.3324H34.6681C34.8449 21.3324 35.0145 21.2622 35.1395 21.1371C35.2645 21.0121 35.3348 20.8425 35.3348 20.6657C35.3348 20.4889 35.2645 20.3193 35.1395 20.1943C35.0145 20.0693 34.8449 19.999 34.6681 19.999Z" fill="#FF4136"/>
<path d="M32.0017 22.6658H28.6682C28.4913 22.6658 28.3218 22.736 28.1967 22.861C28.0717 22.9861 28.0015 23.1557 28.0015 23.3325C28.0015 23.5093 28.0717 23.6789 28.1967 23.8039C28.3218 23.9289 28.4913 23.9992 28.6682 23.9992H32.0017C32.1785 23.9992 32.3481 23.9289 32.4731 23.8039C32.5981 23.6789 32.6684 23.5093 32.6684 23.3325C32.6684 23.1557 32.5981 22.9861 32.4731 22.861C32.3481 22.736 32.1785 22.6658 32.0017 22.6658Z" fill="#FF4136"/>
</svg>
