<svg width="41" height="40" viewBox="0 0 41 40" fill="none" xmlns="http://www.w3.org/2000/svg">
<path d="M38.2636 29.1945C36.449 29.1909 37.0104 29.192 35.2024 29.1885C34.6193 29.1885 34.142 29.6596 34.1408 30.2489L34.124 38.9308C34.1228 39.5155 34.5951 39.993 35.1833 39.9943C36.9979 39.9978 36.4364 39.9967 38.2444 40.0002C38.8292 40.0002 39.3048 39.5273 39.3061 38.9404L39.3228 30.2579C39.324 29.6726 38.8483 29.1957 38.2636 29.1945ZM38.4018 31.0802L38.3868 38.9386C38.3868 39.017 38.3228 39.081 38.2444 39.081L35.1851 39.075C35.1067 39.075 35.0433 39.011 35.0433 38.932L35.06 30.2501C35.06 30.1717 35.1241 30.1077 35.2024 30.1077L38.2618 30.1137C38.3398 30.1137 38.4036 30.1786 38.4036 30.2561C38.4036 30.2561 38.4017 31.1419 38.4018 31.0802Z" fill="#FF4136"/>
<path d="M32.8931 30.0376C32.3775 29.7789 30.5405 28.0579 27.1719 28.0579C24.8711 28.0579 23.6727 28.8126 22.237 29.3098C19.9758 30.1693 18.3288 29.8442 16.3374 29.9406C15.8562 29.9406 15.3816 30.0914 15.0004 30.3655C13.4247 31.5049 14.1955 33.8758 16.6707 33.9335C17.4989 33.9285 19.1504 33.918 19.2279 33.918C21.1145 33.918 22.2098 34.7811 22.4416 34.8803C22.6617 35.005 22.9428 34.9289 23.0688 34.7079C23.1939 34.4871 23.1167 34.2064 22.8965 34.0808C22.6388 33.9722 21.4049 32.9941 19.1776 32.9987L16.6611 33.0143C15.0889 32.9491 14.6966 31.7195 15.5384 31.1112C15.7634 30.949 16.0471 30.8598 16.3415 30.8598C18.3201 30.7601 20.1032 31.1041 22.5619 30.1698C24.0453 29.6528 25.0919 28.9771 27.1719 28.9771C30.2227 28.9771 31.8467 30.5331 32.3916 30.8084C32.6047 30.9472 32.8889 30.8862 33.0278 30.6737C33.166 30.4613 33.1062 30.1764 32.8931 30.0376Z" fill="#FF4136"/>
<path d="M32.8146 38.325C31.9899 37.957 29.732 37.0736 26.587 36.8271C24.0893 36.6191 22.3562 37.2649 17.4109 38.0282C15.3683 38.3142 13.3144 37.7972 11.7764 36.6128L1.80604 28.9472C1.63248 28.8113 1.60555 28.4331 1.82938 28.1303C2.31652 27.4708 3.80609 27.3469 6.4034 29.1584L9.1641 31.0489C10.0624 31.6594 11.0421 32.0903 12.0762 32.3308C12.3234 32.3883 12.5705 32.2351 12.628 31.9873C12.6854 31.7402 12.5316 31.493 12.2845 31.4356C11.361 31.2207 10.4849 30.8347 9.68176 30.2895L6.92586 28.402C2.97902 25.6508 1.46132 27.0806 1.08968 27.5839C0.580991 28.2733 0.648617 29.2093 1.24289 29.6737L11.2156 37.3417C12.9482 38.6751 15.2498 39.255 17.5533 38.9366C22.6173 38.1497 24.1779 37.5516 26.5134 37.7433C29.5177 37.9791 31.659 38.8158 32.44 39.1641C32.501 39.1916 32.5645 39.2042 32.6273 39.2042C32.8026 39.2042 32.9708 39.103 33.0468 38.9319C33.1504 38.7003 33.0462 38.4285 32.8146 38.325Z" fill="#FF4136"/>
<path d="M9.97063 15.4423C9.97063 15.1885 9.76476 14.9827 9.51101 14.9827H7.93227C7.67853 14.9827 7.47266 15.1885 7.47266 15.4423C7.47266 15.696 7.67853 15.9019 7.93227 15.9019H9.05139V16.9301C9.05139 17.1838 9.25726 17.3897 9.51101 17.3897C9.76476 17.3897 9.97063 17.1838 9.97063 16.9301V15.4423Z" fill="#FF4136"/>
<path d="M6.31036 15.4423C6.31036 15.1885 6.10449 14.9827 5.85074 14.9827H4.27261C4.01886 14.9827 3.81299 15.1885 3.81299 15.4423C3.81299 15.696 4.01886 15.9019 4.27261 15.9019H5.39113V16.9301C5.39113 17.1838 5.597 17.3897 5.85074 17.3897C6.10449 17.3897 6.31036 17.1838 6.31036 16.9301V15.4423Z" fill="#FF4136"/>
<path d="M9.51101 21.09C9.76476 21.09 9.97063 20.8841 9.97063 20.6304V19.142C9.97063 18.8882 9.76476 18.6824 9.51101 18.6824H7.93227C7.67853 18.6824 7.47266 18.8882 7.47266 19.142C7.47266 19.3957 7.67853 19.6016 7.93227 19.6016H9.05139V20.6304C9.05139 20.8841 9.25726 21.09 9.51101 21.09Z" fill="#FF4136"/>
<path d="M5.85074 21.09C6.10449 21.09 6.31036 20.8841 6.31036 20.6304V19.142C6.31036 18.8882 6.10449 18.6824 5.85074 18.6824H4.27261C4.01886 18.6824 3.81299 18.8882 3.81299 19.142C3.81299 19.3957 4.01886 19.6016 4.27261 19.6016H5.39113V20.6304C5.39113 20.8841 5.597 21.09 5.85074 21.09Z" fill="#FF4136"/>
<path d="M31.9851 8.98723L21.7101 0.526214C20.8519 -0.179968 19.6107 -0.174582 18.7573 0.537585L8.54459 9.06862C8.18851 9.36606 7.98503 9.80293 7.98683 10.2667L7.99042 11.262C7.99301 12.1806 9.06696 12.6813 9.77263 12.0914L19.8172 3.70224C20.0649 3.49577 20.427 3.49278 20.6778 3.69925L30.778 12.0184C31.4908 12.6053 32.5574 12.092 32.5548 11.1758L32.5512 10.1806C32.5494 9.71616 32.3429 9.28108 31.9851 8.98723ZM31.3621 11.3087L21.2619 2.98947C20.6706 2.50293 19.8148 2.50652 19.2283 2.99665C18.3706 3.713 9.67991 10.9715 9.18375 11.3859C9.07182 11.4799 8.91056 11.3977 8.90965 11.2584L8.90606 10.2631C8.90546 10.074 8.98805 9.8957 9.13348 9.77421L19.3468 1.24257C19.86 0.814863 20.6061 0.809221 21.126 1.23599L31.4016 9.69701C31.547 9.8173 31.6314 9.99444 31.632 10.1842L31.6356 11.1794C31.6365 11.3196 31.4724 11.3995 31.3621 11.3087Z" fill="#FF4136"/>
<path d="M38.242 1.64376C38.1079 1.18294 37.6794 0.861572 37.1995 0.861572H25.423C25.1692 0.861572 24.9634 1.06744 24.9634 1.32119C24.9634 1.57494 25.1692 1.78081 25.423 1.78081H37.1995C37.2731 1.78081 37.3389 1.83048 37.3599 1.9011L39.2133 8.25255C39.2336 8.32197 39.2055 8.37403 39.1864 8.39917C39.1678 8.4243 39.1253 8.4662 39.0529 8.4662H33.8571C33.6033 8.4662 33.3975 8.67207 33.3975 8.92581C33.3975 9.17956 33.6033 9.38543 33.8571 9.38543H38.3336V23.1937H28.596V12.4759C28.596 12.2221 28.3902 12.0163 28.1364 12.0163C27.8827 12.0163 27.6768 12.2221 27.6768 12.4759V23.1937H25.7144C25.4607 23.1937 25.2548 23.3996 25.2548 23.6533C25.2548 23.907 25.4607 24.1129 25.7144 24.1129H38.7932C39.0469 24.1129 39.2528 23.907 39.2528 23.6533V9.36239C39.5181 9.31332 39.7558 9.17208 39.9219 8.95035C40.1289 8.67386 40.1924 8.32556 40.0954 7.99461L38.242 1.64376Z" fill="#FF4136"/>
<path d="M0.889109 23.6533C0.889109 23.907 1.09498 24.1129 1.34873 24.1129H14.7853C15.0391 24.1129 15.245 23.907 15.245 23.6533C15.245 23.3996 15.0391 23.1937 14.7853 23.1937H12.8613V12.4777C12.8613 12.2239 12.6554 12.0181 12.4017 12.0181C12.1479 12.0181 11.9421 12.2239 11.9421 12.4777V23.1937H1.80834V9.38543H6.28243C6.53617 9.38543 6.74204 9.17956 6.74204 8.92581C6.74204 8.67207 6.53617 8.4662 6.28243 8.4662C0.922811 8.42392 1.05591 8.5384 0.953144 8.39917C0.844927 8.25713 0.90645 8.47063 2.77964 1.9011C2.80059 1.83048 2.86642 1.78081 2.94003 1.78081H15.3431C15.5968 1.78081 15.8027 1.57494 15.8027 1.32119C15.8027 1.06744 15.5968 0.861572 15.3431 0.861572H2.94003C2.46007 0.861572 2.03157 1.18294 1.89751 1.64376L0.0440846 7.99401C-0.13392 8.60274 0.242975 9.24432 0.889109 9.36269V23.6533Z" fill="#FF4136"/>
<path d="M18.1933 9.42113L20.24 7.34866L22.3119 9.42113C22.4016 9.5109 22.5189 9.55578 22.6368 9.55578C23.0418 9.55578 23.2528 9.06224 22.9618 8.7712L20.8899 6.69874C20.5398 6.34744 19.9671 6.34624 19.6158 6.69874L17.5433 8.7712C17.3638 8.95074 17.3638 9.24159 17.5433 9.42113C17.7229 9.60067 18.0137 9.60067 18.1933 9.42113Z" fill="#FF4136"/>
<path d="M17.4693 27.465C19.8906 29.93 24.1226 28.2381 24.1547 24.7654C24.1698 23.0651 23.0869 21.6091 21.5709 21.0624L21.6226 14.6041C21.625 14.3199 21.4921 14.0446 21.2671 13.868L19.9768 12.8578C19.6866 12.6346 19.273 12.6747 19.0318 12.9524L18.1072 14.0278C17.8822 14.2911 17.8984 14.6891 18.1449 14.9333L18.8038 15.5862L18.1126 16.3576C17.8714 16.6263 17.8906 17.044 18.1545 17.2888L18.823 17.9106L18.7964 21.1097C16.2196 22.1461 15.5189 25.4795 17.4693 27.465ZM19.531 17.3139L18.963 16.7861L19.6501 16.0195C19.8876 15.7544 19.8751 15.3516 19.6225 15.1032L18.9594 14.4467L19.5848 13.719L20.7033 14.5969L20.6533 20.8505C20.3411 20.8183 20.0831 20.8191 19.7177 20.8694L19.7434 17.8071C19.7452 17.6192 19.6668 17.4384 19.531 17.3139ZM20.2527 21.7479H20.2796C21.9242 21.7629 23.2498 23.113 23.2354 24.757C23.2208 26.3551 21.9334 27.7134 20.2264 27.7134C18.5789 27.6985 17.2557 26.3527 17.2706 24.7043C17.2854 23.0627 18.6171 21.7479 20.2527 21.7479Z" fill="#FF4136"/>
<path d="M21.6193 26.0804C21.8783 25.3172 21.4641 24.5031 20.7187 24.2497C19.5127 23.8391 18.3891 25.0953 18.9586 26.2527C19.5257 27.4069 21.2075 27.2881 21.6193 26.0804ZM20.022 25.1456C20.2899 25.0138 20.599 25.1325 20.7228 25.3838C20.8524 25.6478 20.7406 25.9596 20.4847 26.0852C20.2204 26.2148 19.9088 26.103 19.7833 25.847C19.7216 25.7213 19.7646 25.2719 20.022 25.1456Z" fill="#FF4136"/>
<path d="M32.3806 14.9827H30.8019C30.5482 14.9827 30.3423 15.1885 30.3423 15.4423V16.9301C30.3423 17.1838 30.5482 17.3897 30.8019 17.3897C31.0556 17.3897 31.2615 17.1838 31.2615 16.9301V15.9019H32.3806C32.6344 15.9019 32.8403 15.696 32.8403 15.4423C32.8403 15.1885 32.6344 14.9827 32.3806 14.9827Z" fill="#FF4136"/>
<path d="M34.4621 17.3897C34.7158 17.3897 34.9217 17.1838 34.9217 16.9301V15.9019H36.0408C36.2945 15.9019 36.5004 15.696 36.5004 15.4423C36.5004 15.1885 36.2945 14.9827 36.0408 14.9827H34.4621C34.2083 14.9827 34.0024 15.1885 34.0024 15.4423V16.9301C34.0024 17.1838 34.2083 17.3897 34.4621 17.3897Z" fill="#FF4136"/>
<path d="M32.3806 18.6824H30.8019C30.5482 18.6824 30.3423 18.8882 30.3423 19.142V20.6304C30.3423 20.8841 30.5482 21.09 30.8019 21.09C31.0556 21.09 31.2615 20.8841 31.2615 20.6304V19.6016H32.3806C32.6344 19.6016 32.8403 19.3957 32.8403 19.142C32.8403 18.8882 32.6344 18.6824 32.3806 18.6824Z" fill="#FF4136"/>
<path d="M34.0024 20.6304C34.0024 20.8841 34.2083 21.09 34.4621 21.09C34.7158 21.09 34.9217 20.8841 34.9217 20.6304V19.6016H36.0408C36.2945 19.6016 36.5004 19.3957 36.5004 19.142C36.5004 18.8882 36.2945 18.6824 36.0408 18.6824H34.4621C34.2083 18.6824 34.0024 18.8882 34.0024 19.142V20.6304Z" fill="#FF4136"/>
</svg>
