<svg xmlns="http://www.w3.org/2000/svg" viewBox="0 0 128 128" fill="none" role="img" aria-label="Viver Catarina">
  <rect width="128" height="128" rx="28" fill="#03060E"/>
  <rect x="24" y="68" width="18" height="36" rx="3" fill="#FFFFFF"/>
  <rect x="46" y="42" width="22" height="62" rx="3" fill="#FFFFFF"/>
  <rect x="72" y="56" width="18" height="48" rx="3" fill="#FFFFFF"/>
  <rect x="46" y="34" width="22" height="8" rx="2" fill="#FFAF00"/>
  <path d="M92 36h8v6h-8v-6Z" fill="#FFAF00"/>
  <path d="M96 42v14" stroke="#FFAF00" stroke-width="3" stroke-linecap="round"/>
  <path d="M88 50h16" stroke="#FFAF00" stroke-width="3" stroke-linecap="round"/>
  <rect x="28" y="76" width="4" height="4" rx="1" fill="#FFAF00"/>
  <rect x="28" y="86" width="4" height="4" rx="1" fill="#FFAF00"/>
  <rect x="52" y="54" width="4" height="4" rx="1" fill="#FFAF00"/>
  <rect x="60" y="54" width="4" height="4" rx="1" fill="#FFAF00"/>
  <rect x="52" y="66" width="4" height="4" rx="1" fill="#FFAF00"/>
  <rect x="60" y="66" width="4" height="4" rx="1" fill="#FFAF00"/>
  <rect x="52" y="78" width="4" height="4" rx="1" fill="#FFAF00"/>
  <rect x="60" y="78" width="4" height="4" rx="1" fill="#FFAF00"/>
  <rect x="76" y="68" width="4" height="4" rx="1" fill="#FFAF00"/>
  <rect x="76" y="80" width="4" height="4" rx="1" fill="#FFAF00"/>
</svg>
